HIERARCHY
ROOT Hips
{
  OFFSET 5.84602e-005 68.8428 3.50346
  CHANNELS 6 Xposition Yposition Zposition Zrotation Xrotation Yrotation
  JOINT Spine
  {
    OFFSET 0 8.597 -4.6522
    CHANNELS 3 Zrotation Xrotation Yrotation
    JOINT Spine1
    {
      OFFSET 0 7.8454 0.4098
      CHANNELS 3 Zrotation Xrotation Yrotation
      JOINT Spine2
      {
        OFFSET 0 9.7078 -2.1609
        CHANNELS 3 Zrotation Xrotation Yrotation
        JOINT Neck
        {
          OFFSET 0 21.8761 -0.4549
          CHANNELS 3 Zrotation Xrotation Yrotation
          JOINT Head
          {
            OFFSET 0 12.3537 3.3602
            CHANNELS 3 Zrotation Xrotation Yrotation
            End Site
            {
              OFFSET 0.0001 18.9506 0.5657
            }
          }
        }
        JOINT LeftShoulder
        {
          OFFSET 2.2086 21.1115 7.2329
          CHANNELS 3 Zrotation Xrotation Yrotation
          JOINT LeftArm
          {
            OFFSET 13.1193 3.0282 -4.8998
            CHANNELS 3 Zrotation Xrotation Yrotation
            JOINT LeftForeArm
            {
              OFFSET 27.4081 -0.0973053 -0.2375
              CHANNELS 3 Zrotation Xrotation Yrotation
              JOINT LeftHand
              {
                OFFSET 22.8641 0.0662994 -0.1369
                CHANNELS 3 Zrotation Xrotation Yrotation
                JOINT LeftHandIndex1
                {
                  OFFSET 8.8614 0.775009 2.4612
                  CHANNELS 3 Zrotation Xrotation Yrotation
                  JOINT LeftHandIndex2
                  {
                    OFFSET 3.3146 -0.808304 0.5841
                    CHANNELS 3 Zrotation Xrotation Yrotation
                    JOINT LeftHandIndex3
                    {
                      OFFSET 2.2628 -0.552002 0.3989
                      CHANNELS 3 Zrotation Xrotation Yrotation
                      End Site
                      {
                        OFFSET 1.6102 -0.4807 0.2612
                      }
                    }
                  }
                }
                JOINT LeftHandMiddle1
                {
                  OFFSET 8.9937 0.895004 0.2143
                  CHANNELS 3 Zrotation Xrotation Yrotation
                  JOINT LeftHandMiddle2
                  {
                    OFFSET 4.0984 0.0113983 -0.0242
                    CHANNELS 3 Zrotation Xrotation Yrotation
                    JOINT LeftHandMiddle3
                    {
                      OFFSET 2.2716 0.00689697 -0.0138001
                      CHANNELS 3 Zrotation Xrotation Yrotation
                      End Site
                      {
                        OFFSET 2.0404 -0.1441 0.0027
                      }
                    }
                  }
                }
                JOINT LeftHandRing1
                {
                  OFFSET 8.5234 0.597198 -2.0164
                  CHANNELS 3 Zrotation Xrotation Yrotation
                  JOINT LeftHandRing2
                  {
                    OFFSET 3.7188 -0.188293 -0.2328
                    CHANNELS 3 Zrotation Xrotation Yrotation
                    JOINT LeftHandRing3
                    {
                      OFFSET 2.1191 -0.106598 -0.1332
                      CHANNELS 3 Zrotation Xrotation Yrotation
                      End Site
                      {
                        OFFSET 1.8737 -0.2304 -0.0886
                      }
                    }
                  }
                }
                JOINT LeftHandPinky1
                {
                  OFFSET 7.9094 -0.601089 -3.4825
                  CHANNELS 3 Zrotation Xrotation Yrotation
                  JOINT LeftHandPinky2
                  {
                    OFFSET 2.2874 -0.477005 -0.6314
                    CHANNELS 3 Zrotation Xrotation Yrotation
                    JOINT LeftHandPinky3
                    {
                      OFFSET 1.6774 -0.349396 -0.4633
                      CHANNELS 3 Zrotation Xrotation Yrotation
                      End Site
                      {
                        OFFSET 1.4888 -0.4091 -0.3416
                      }
                    }
                  }
                }
                JOINT LeftHandThumb1
                {
                  OFFSET 1.833 -1.3875 1.3896
                  CHANNELS 3 Zrotation Xrotation Yrotation
                  JOINT LeftHandThumb2
                  {
                    OFFSET 3.4129 -1.121 2.5732
                    CHANNELS 3 Zrotation Xrotation Yrotation
                    JOINT LeftHandThumb3
                    {
                      OFFSET 2.2474 -0.804199 1.6192
                      CHANNELS 3 Zrotation Xrotation Yrotation
                      End Site
                      {
                        OFFSET 1.6527 -0.5689 1.1317
                      }
                    }
                  }
                }
              }
            }
          }
        }
        JOINT RightShoulder
        {
          OFFSET -2.2086 21.1115 7.2329
          CHANNELS 3 Zrotation Xrotation Yrotation
          JOINT RightArm
          {
            OFFSET -13.1216 3.0287 -4.9007
            CHANNELS 3 Zrotation Xrotation Yrotation
            JOINT RightForeArm
            {
              OFFSET -27.4081 -0.0973053 -0.2375
              CHANNELS 3 Zrotation Xrotation Yrotation
              JOINT RightHand
              {
                OFFSET -22.8641 0.0664063 -0.1369
                CHANNELS 3 Zrotation Xrotation Yrotation
                JOINT RightHandIndex1
                {
                  OFFSET -8.8614 0.774994 2.4612
                  CHANNELS 3 Zrotation Xrotation Yrotation
                  JOINT RightHandIndex2
                  {
                    OFFSET -3.3146 -0.808304 0.5841
                    CHANNELS 3 Zrotation Xrotation Yrotation
                    JOINT RightHandIndex3
                    {
                      OFFSET -2.2628 -0.552002 0.3989
                      CHANNELS 3 Zrotation Xrotation Yrotation
                      End Site
                      {
                        OFFSET -1.6102 -0.4807 0.2612
                      }
                    }
                  }
                }
                JOINT RightHandMiddle1
                {
                  OFFSET -8.9937 0.894989 0.2143
                  CHANNELS 3 Zrotation Xrotation Yrotation
                  JOINT RightHandMiddle2
                  {
                    OFFSET -4.0984 0.0113983 -0.0242
                    CHANNELS 3 Zrotation Xrotation Yrotation
                    JOINT RightHandMiddle3
                    {
                      OFFSET -2.2716 0.00691223 -0.0138001
                      CHANNELS 3 Zrotation Xrotation Yrotation
                      End Site
                      {
                        OFFSET -2.0404 -0.1441 0.0027
                      }
                    }
                  }
                }
                JOINT RightHandRing1
                {
                  OFFSET -8.5234 0.597198 -2.0164
                  CHANNELS 3 Zrotation Xrotation Yrotation
                  JOINT RightHandRing2
                  {
                    OFFSET -3.7188 -0.188309 -0.2328
                    CHANNELS 3 Zrotation Xrotation Yrotation
                    JOINT RightHandRing3
                    {
                      OFFSET -2.1191 -0.106598 -0.1332
                      CHANNELS 3 Zrotation Xrotation Yrotation
                      End Site
                      {
                        OFFSET -1.8737 -0.2304 -0.0886
                      }
                    }
                  }
                }
                JOINT RightHandPinky1
                {
                  OFFSET -7.9094 -0.601105 -3.4825
                  CHANNELS 3 Zrotation Xrotation Yrotation
                  JOINT RightHandPinky2
                  {
                    OFFSET -2.2874 -0.477005 -0.6314
                    CHANNELS 3 Zrotation Xrotation Yrotation
                    JOINT RightHandPinky3
                    {
                      OFFSET -1.6774 -0.349396 -0.4633
                      CHANNELS 3 Zrotation Xrotation Yrotation
                      End Site
                      {
                        OFFSET -1.4888 -0.4091 -0.3416
                      }
                    }
                  }
                }
                JOINT RightHandThumb1
                {
                  OFFSET -1.833 -1.38751 1.3896
                  CHANNELS 3 Zrotation Xrotation Yrotation
                  JOINT RightHandThumb2
                  {
                    OFFSET -3.41299 -1.12099 2.5732
                    CHANNELS 3 Zrotation Xrotation Yrotation
                    JOINT RightHandThumb3
                    {
                      OFFSET -2.24741 -0.804108 1.6192
                      CHANNELS 3 Zrotation Xrotation Yrotation
                      End Site
                      {
                        OFFSET -1.6527 -0.5689 1.1317
                      }
                    }
                  }
                }
              }
            }
          }
        }
      }
    }
  }
  JOINT RightUpLeg
  {
    OFFSET -9.1966 3.8861 -0.7581
    CHANNELS 3 Zrotation Xrotation Yrotation
    JOINT RightLeg
    {
      OFFSET -0.7359 -41.0265 0
      CHANNELS 3 Zrotation Xrotation Yrotation
      JOINT RightFoot
      {
        OFFSET 0 -40.2855 0
        CHANNELS 3 Zrotation Xrotation Yrotation
        JOINT RightToeBase
        {
          OFFSET 0 -5.6122 11.7359
          CHANNELS 3 Zrotation Xrotation Yrotation
          End Site
          {
            OFFSET 0 0 7.8731
          }
        }
      }
    }
  }
  JOINT LeftUpLeg
  {
    OFFSET 9.1965 3.8864 -0.7581
    CHANNELS 3 Zrotation Xrotation Yrotation
    JOINT LeftLeg
    {
      OFFSET 0.7359 -41.0268 0
      CHANNELS 3 Zrotation Xrotation Yrotation
      JOINT LeftFoot
      {
        OFFSET 0 -40.2855 0
        CHANNELS 3 Zrotation Xrotation Yrotation
        JOINT LeftToeBase
        {
          OFFSET 0 -5.6122 11.7359
          CHANNELS 3 Zrotation Xrotation Yrotation
          End Site
          {
            OFFSET 0 0 7.8731
          }
        }
      }
    }
  }
}
MOTION
Frames:	4
Frame Time:	0.0333333
0.650833 17.9092 8.16796 0 22.9239 -0 0.18108 -2.25124 -0.0399277 0.361008 -4.50261 -0.0728124 0.361008 -4.50261 -0.0728123 -1.32526 -20.9973 -1.52716 -1.64452e-007 -6.00166 -1.99907e-007 -30.9447 -45.0244 -17.8783 -14.2979 -2.20114 24.1852 -52.5033 -13.4244 -15.6037 5.77868 7.92092 5.57171 3.97059e-007 -6.8669e-007 7.13619e-007 3.97059e-007 -6.8669e-007 7.13619e-007 3.97059e-007 -6.8669e-007 7.13619e-007 3.97059e-007 -6.8669e-007 7.13619e-007 -0.0146089 -8.59041e-005 2.45572e-006 3.97063e-007 -6.86781e-007 7.13531e-007 3.97059e-007 -6.8669e-007 7.13619e-007 -0.0188171 -0.00117914 5.99076e-005 2.34181e-007 -4.23224e-007 1.05676e-006 3.97059e-007 -6.8669e-007 7.13619e-007 -0.0122505 -0.00324406 0.000675009 3.97078e-007 -6.86768e-007 7.13534e-007 3.97059e-007 -6.8669e-007 7.13619e-007 3.97059e-007 -6.8669e-007 7.13619e-007 3.97059e-007 -6.8669e-007 7.13619e-007 29.3811 -45.2018 17.1739 14.6877 -2.33709 -24.193 52.8542 -13.3602 15.3599 -5.97029 8.06873 -5.34875 -4.02199e-007 -6.89391e-007 -7.07808e-007 3.18055e-015 9.54166e-015 6.36111e-015 -4.02199e-007 -6.89391e-007 -7.07808e-007 -4.02199e-007 -6.89391e-007 -7.07808e-007 0.0149963 -9.04717e-005 1.2566e-006 -4.02204e-007 -6.89483e-007 -7.07718e-007 -4.02199e-007 -6.89391e-007 -7.07808e-007 0.0189899 -0.00119096 -5.59256e-005 -4.02211e-007 -6.89508e-007 -7.0769e-007 -4.02199e-007 -6.89391e-007 -7.07808e-007 0.0123055 -0.00325733 -0.000677192 -4.02218e-007 -6.89468e-007 -7.07723e-007 -4.02199e-007 -6.89391e-007 -7.07808e-007 3.18055e-015 9.54166e-015 6.36111e-015 -4.02199e-007 -6.89391e-007 -7.07808e-007 -131.125 -40.3857 -145.376 -146.083 61.8088 147.174 -3.49473 -14.4544 -8.43883 -2.29024e-007 -1.14277e-007 -1.50049e-006 131.12 -40.404 145.343 146.138 61.8463 -147.248 3.49493 -14.4526 8.42141 -1.06153e-006 1.41502e-007 -4.68382e-006 
0.650835 18.0689 8.02114 0 23.3497 -0 0.180811 -2.1211 -0.0411696 0.360467 -4.24232 -0.0757133 0.360467 -4.24233 -0.0757132 -1.45799 -20.9962 -1.68009 7.56878e-008 -6.21658 -3.90761e-007 -30.8819 -45.1443 -18.0683 -14.2979 -2.20115 24.1852 -52.7104 -13.364 -15.6232 5.47131 7.59575 4.86327 -2.32354e-007 4.27548e-007 -1.06325e-006 -6.36111e-015 3.18055e-015 6.36111e-015 -3.97167e-007 6.8646e-007 -7.13803e-007 -2.32354e-007 4.27548e-007 -1.06325e-006 -0.0146248 -9.06162e-005 -9.98551e-007 -3.9717e-007 6.86551e-007 -7.13715e-007 -2.32354e-007 4.27548e-007 -1.06325e-006 -0.0188122 -0.00117824 6.06461e-005 -3.97177e-007 6.86577e-007 -7.13686e-007 -2.32354e-007 4.27548e-007 -1.06325e-006 -0.0122539 -0.00324337 0.000677426 -3.97185e-007 6.86538e-007 -7.13718e-007 -2.32354e-007 4.27548e-007 -1.06325e-006 -6.36111e-015 3.18055e-015 6.36111e-015 -3.97167e-007 6.8646e-007 -7.13803e-007 29.4237 -45.3227 17.4296 14.6877 -2.3371 -24.193 53.0165 -13.3122 15.3813 -5.64045 7.75422 -4.66555 9.58903e-008 -2.26494e-006 2.2061e-006 1.55941e-006 -2.18591e-006 6.8187e-006 4.02245e-007 6.89405e-007 7.07795e-007 9.58903e-008 -2.26494e-006 2.2061e-006 0.0149856 -9.47713e-005 4.21073e-006 4.0225e-007 6.89498e-007 7.07704e-007 9.58903e-008 -2.26494e-006 2.2061e-006 0.0189908 -0.00119406 -4.87069e-005 4.02257e-007 6.89522e-007 7.07676e-007 9.58903e-008 -2.26494e-006 2.2061e-006 0.0121941 -0.00322957 -0.0006696 4.02264e-007 6.89482e-007 7.0771e-007 9.58903e-008 -2.26494e-006 2.2061e-006 1.55941e-006 -2.18591e-006 6.8187e-006 4.02245e-007 6.89405e-007 7.07795e-007 -131.368 -40.4089 -145.72 -145.785 62.0569 146.931 -3.43536 -14.3768 -8.64067 -9.83488e-007 4.05924e-008 3.25514e-006 131.363 -40.4273 145.687 145.841 62.0942 -147.005 3.43575 -14.3753 8.62355 -7.96834e-007 -3.79894e-008 -6.40153e-006 
0.650835 18.229 7.87431 0 23.7755 -0 0.180546 -1.99098 -0.0424095 0.359943 -3.98208 -0.0786081 0.359943 -3.98208 -0.0786082 -1.59071 -20.9946 -1.83304 4.06355e-007 -6.43149 3.38494e-007 -30.8194 -45.2642 -18.2584 -14.2979 -2.20115 24.1852 -52.9175 -13.3036 -15.6426 5.16023 7.27446 4.15376 -3.97256e-007 6.86267e-007 -7.13961e-007 -3.97256e-007 6.86267e-007 -7.13961e-007 -3.97256e-007 6.86267e-007 -7.13961e-007 -3.97256e-007 6.86267e-007 -7.13961e-007 -0.0146426 -8.68043e-005 -3.79112e-006 -3.97259e-007 6.86358e-007 -7.13873e-007 -3.97256e-007 6.86267e-007 -7.13961e-007 -0.0187462 -0.00117266 5.87179e-005 -3.97266e-007 6.86384e-007 -7.13845e-007 -3.97256e-007 6.86267e-007 -7.13961e-007 -0.0122917 -0.00325407 0.000676791 -3.97274e-007 6.86346e-007 -7.13876e-007 -3.97256e-007 6.86267e-007 -7.13961e-007 -3.97256e-007 6.86267e-007 -7.13961e-007 -3.97256e-007 6.86267e-007 -7.13961e-007 29.4672 -45.4434 17.6859 14.6877 -2.33708 -24.193 53.1787 -13.2641 15.4027 -5.30717 7.44369 -3.9812 -4.0228e-007 -6.89452e-007 -7.07755e-007 4.82737e-007 8.27342e-007 8.49306e-007 4.0228e-007 6.89452e-007 7.07755e-007 -4.0228e-007 -6.89452e-007 -7.07755e-007 0.01506 -8.97837e-005 4.56895e-006 4.02285e-007 6.89545e-007 7.07664e-007 -4.0228e-007 -6.89452e-007 -7.07755e-007 0.0190302 -0.0011943 -5.40622e-005 4.02292e-007 6.89569e-007 7.07636e-007 -4.0228e-007 -6.89452e-007 -7.07755e-007 0.0122465 -0.00323911 -0.000673027 4.023e-007 6.89529e-007 7.0767e-007 -4.0228e-007 -6.89452e-007 -7.07755e-007 4.82737e-007 8.27342e-007 8.49306e-007 4.0228e-007 6.89452e-007 7.07755e-007 -131.611 -40.431 -146.064 -145.483 62.3043 146.683 -3.37579 -14.2995 -8.8426 8.72372e-007 9.32135e-008 -2.54458e-008 131.607 -40.4495 146.031 145.539 62.3414 -146.758 3.37634 -14.2983 8.82581 -9.09004e-007 -6.9817e-009 3.37022e-008 
0.650835 18.3896 7.72749 0 24.2013 -0 0.180285 -1.86086 -0.0436468 0.359435 -3.72185 -0.0814961 0.359435 -3.72184 -0.081496 -1.72349 -20.993 -1.98603 -3.70963e-008 -6.6464 -6.75345e-007 -30.7574 -45.3843 -18.4487 -14.2979 -2.20114 24.1852 -53.1245 -13.2431 -15.6617 4.84554 6.95714 3.44321 3.97326e-007 -6.86111e-007 7.14093e-007 3.97326e-007 -6.86111e-007 7.14093e-007 -1.59028e-015 6.36111e-015 -0 3.97326e-007 -6.86111e-007 7.14093e-007 -0.0146085 -9.04116e-005 2.79572e-006 1.59028e-015 0 6.36111e-015 3.97326e-007 -6.86111e-007 7.14093e-007 -0.0188009 -0.00118008 5.97917e-005 -6.36111e-015 -6.36111e-015 -0 3.97326e-007 -6.86111e-007 7.14093e-007 -0.0122413 -0.00324409 0.000675592 1.59028e-015 6.36111e-015 -0 3.97326e-007 -6.86111e-007 7.14093e-007 3.97326e-007 -6.86111e-007 7.14093e-007 -1.59028e-015 6.36111e-015 -0 29.5115 -45.564 17.9429 14.6877 -2.33709 -24.193 53.3409 -13.2159 15.4238 -4.97053 7.13726 -3.29577 4.82766e-007 8.27437e-007 8.49226e-007 8.85071e-007 1.51697e-006 1.55691e-006 4.02305e-007 6.89531e-007 7.07689e-007 4.82766e-007 8.27437e-007 8.49226e-007 0.0149689 -9.22823e-005 -4.21454e-007 4.02309e-007 6.89624e-007 7.07598e-007 4.82766e-007 8.27437e-007 8.49226e-007 0.0189966 -0.00118777 -6.45571e-005 4.02317e-007 6.89648e-007 7.0757e-007 4.82766e-007 8.27437e-007 8.49226e-007 0.0123064 -0.00326066 -0.000676442 2.64215e-007 2.73536e-006 -1.03185e-006 4.82766e-007 8.27437e-007 8.49226e-007 8.85071e-007 1.51697e-006 1.55691e-006 4.02305e-007 6.89531e-007 7.07689e-007 -131.855 -40.4519 -146.408 -145.176 62.5511 146.43 -3.316 -14.2223 -9.04462 3.66241e-008 -9.98912e-008 -8.28993e-009 131.85 -40.4704 146.376 145.233 62.588 -146.505 3.31669 -14.2214 9.02814 -1.01878e-006 -3.06697e-007 5.85037e-008 
